PathFileType	4	(X/Y/Z)	11_2_79_p0_0-163_filt_butterworth.trc
DataRate	CameraRate	NumFrames	NumMarkers	Units	OrigDataRate	OrigDataStartFrame	OrigNumFrames
60.0	60.0	4	27	m	60.0	0	163
Frame#	Time	RHip			RKnee			RAnkle			RBigToe			RSmallToe			RHeel			LHip			LKnee			LAnkle			LBigToe			LSmallToe			LHeel			Neck			Head			Nose			RShoulder			RElbow			RWrist			RThumb			RIndex			RPinky			LShoulder			LElbow			LWrist			LThumb			LIndex			LPinky			
		X1	Y1	Z1	X2	Y2	Z2	X3	Y3	Z3	X4	Y4	Z4	X5	Y5	Z5	X6	Y6	Z6	X7	Y7	Z7	X8	Y8	Z8	X9	Y9	Z9	X10	Y10	Z10	X11	Y11	Z11	X12	Y12	Z12	X13	Y13	Z13	X14	Y14	Z14	X15	Y15	Z15	X16	Y16	Z16	X17	Y17	Z17	X18	Y18	Z18	X19	Y19	Z19	X20	Y20	Z20	X21	Y21	Z21	X22	Y22	Z22	X23	Y23	Z23	X24	Y24	Z24	X25	Y25	Z25	X26	Y26	Z26	X27	Y27	Z27	
0	0.0	0.3610241708751706	0.5804961976107884	0.6619777717832538	0.3570487797644674	0.6050362560844257	1.0599246209115274	0.35904121671070494	0.6726086617914038	1.440527445104242	0.3479648818848936	0.5268619516217753	1.453841932721706	0.4006819597372321	0.5631806429519689	1.4544354276772569	0.33619613453921265	0.7940353565552241	1.5352797088132608	0.14058712530651596	0.5927707172763514	0.6626053964211341	0.1534196065041643	0.6524048801370994	1.0797230238588087	0.18353917144394596	0.6936721698872284	1.4384683493473696	0.19183802471324696	0.5135655683226159	1.4399748039971798	0.13778475779269952	0.5670089693974238	1.445017643369367	0.18913527337065827	0.7524063948726535	1.5057205875599382	0.25952284986360563	0.5213256995902689	0.07766284639501773	0.26907191273553877	0.4582085201350932	-0.17459266482437436	0.27489983224283865	0.405029994399689	-0.03499637180200653	0.4008690061233263	0.5273463595806791	0.16019486591072987	0.47236307525623006	0.6011850023565516	0.4240780137016064	0.35628853265575494	0.40721028197642634	0.5101369777643253	0.25333576769895483	0.36685044327728056	0.49400417106551436	0.2384313411671569	0.34653965101522616	0.5397346366217447	0.2493504110413619	0.4112860366067883	0.5777731236213259	0.0964394557804558	0.5041111538134534	0.14950346804869605	0.032531108095339545	0.5521282546592201	0.3880603676852652	0.16261935969760277	0.3950832449341074	0.49085049944659787	0.2408595643255429	0.34490868529749436	0.4813863641893465	0.252922131608429	0.3453603162115048	0.5256477441953047	0.25117463421824937	0.38746863389577263	0.5748775716091465
1	0.0166666666666666	0.3557012143701761	0.5767413067799834	0.6561670902411547	0.35447420561889253	0.5964500445008747	1.0525595393952245	0.35766299674895147	0.6768708532361701	1.4428257629463683	0.35158044532268923	0.5224613248838414	1.4509066914234487	0.4031478152800618	0.5542825830978663	1.4491297282876843	0.3352034358610898	0.7900311420110473	1.5321344730181483	0.14474166672020822	0.5791846726134604	0.6566803698743876	0.15127169453560405	0.6465526039421873	1.0775949053386031	0.1828768898059548	0.6925078088626013	1.4399084382744998	0.19743259882704875	0.5153743563957308	1.440159205556313	0.14150097311108437	0.5584535878218257	1.4397424853675405	0.18913860585331282	0.752015197202878	1.5036374819461205	0.26233252747352725	0.5223014886632984	0.07538399265291597	0.2635971103740874	0.4647254125533986	-0.17452178380349426	0.277433211699043	0.39674764264238305	-0.03467639191023666	0.40110574020922246	0.5266284196612003	0.15820528394053412	0.4682892743120427	0.614423113880256	0.41460085507464794	0.36763989544959685	0.40378601757079957	0.4835007283682422	0.27893647064992844	0.3342798787595975	0.47055865198533364	0.26367003615247203	0.3059497653468291	0.5023396899206877	0.27317937223543093	0.36700515012388724	0.5514378937796296	0.10074453338555928	0.5030450697874725	0.1494765483093674	0.0306622005058937	0.5582965676210861	0.3794926521931068	0.16309028867967643	0.3935852938069155	0.4820949888927648	0.24059158241600256	0.3450902798994124	0.4711928703763033	0.24949516079339495	0.3150824775785902	0.4947555349117255	0.251639662853085	0.37435082236083783	0.5553295411085423
2	0.0333333333333333	0.3522234845560526	0.5753795574813942	0.6503087497069304	0.35218798686033903	0.5897633726490742	1.0470144726480883	0.3570659518464678	0.6787316741166156	1.4438129692087909	0.3540416574706313	0.5214536137361165	1.4500409062320283	0.4045983542342732	0.5488854097199221	1.4460370407660876	0.3351013677009503	0.7898979800693345	1.5319885825056838	0.14741698807063155	0.5691859182407301	0.6506521690450331	0.14922354002499838	0.6410077957293724	1.075592830358861	0.18294744809169652	0.6921828103352325	1.440540025367409	0.20160910207850663	0.5150801527174586	1.4394291430805786	0.14378842011785836	0.5532325559502191	1.4364617912021638	0.1888896431990886	0.7521915368142438	1.5023486777324844	0.2644924253730892	0.5215326266700291	0.07383937744379704	0.2592546854346336	0.46728087044719624	-0.17439201455210188	0.279175664540715	0.3905806603351288	-0.03477871379520235	0.40189423010726033	0.5272315894755318	0.1573479240584193	0.4650151978419224	0.6238186374027241	0.4070026802331306	0.37592383993210854	0.4010194284706029	0.46282520923410214	0.29740975942533676	0.3140287211655487	0.45037308548084	0.28568967466679196	0.27759758497276743	0.47193842169943495	0.29473033383939634	0.33226261883293734	0.5284939058320736	0.10331320039360414	0.502498626096909	0.1494086136623721	0.029275093018828652	0.5685209199887319	0.3743899359479792	0.16263649570913544	0.38933861321761465	0.4689505968534452	0.23659722299698854	0.3319546457165356	0.45490360559578397	0.2424018915882185	0.28837867762114044	0.4684983688262852	0.2478942793232723	0.3496730727393883	0.5305672357928849
3	0.05	0.3506775129998493	0.5769246186998672	0.6442094189328602	0.3498923691604189	0.5843123028588694	1.0434839614311067	0.3574987324534744	0.6773867737578887	1.4430564020734704	0.3550456983728185	0.523028094312622	1.450862009378805	0.404986187936637	0.5472295404092333	1.4455941613319432	0.33561337635077015	0.7923983782714026	1.533895959571983	0.14833012526111916	0.5641331758571463	0.6444080075819143	0.14777998386825064	0.6371736201683487	1.0742325697502841	0.18350625058389175	0.6924124319244618	1.4405952916384135	0.2033573380956941	0.5117641214115858	1.4374072424715443	0.14452021385827557	0.5516249924567278	1.4353621981903364	0.18851259404453571	0.752881450877892	1.5019735236851222	0.26590204449802685	0.5184502183799666	0.07312405297529131	0.2558141111843352	0.4645302404425367	-0.17395971606079358	0.28063756550066826	0.38722149153944224	-0.03543295160239495	0.40348323313519	0.5309467157049091	0.15747622166947647	0.46272713409764993	0.6288442436896478	0.4018378173507321	0.38044870506604667	0.3997041529988431	0.4494901334245244	0.30836439674505994	0.30205128499641504	0.4321623705846488	0.305489181829191	0.25790667240752896	0.44907146989217306	0.313856880444906	0.3072168407818727	0.5091011493046284	0.104282589491698	0.5036804953516151	0.14867379897933378	0.029547461561765225	0.5821405597580925	0.3711475636136642	0.15950074902887526	0.38204365876289537	0.44996724319420667	0.2267971559884201	0.30138731657184525	0.4309530445895985	0.2287921846475982	0.26042870645637006	0.4461279209201055	0.235328820864116	0.3126768700322859	0.5015927466461177
